<mxfile host="app.diagrams.net" modified="2021-04-20T14:10:41.324Z" agent="5.0 (Windows NT 10.0; Win64; x64) AppleWebKit/537.36 (KHTML, like Gecko) Chrome/89.0.4389.114 Safari/537.36 OPR/75.0.3969.171" etag="PrWBr5F3AOfhoaRA5Zor" version="14.6.3" type="github">
  <diagram id="L-ArcHJkX-2zXAjQUg1g" name="Page-1">
    <mxGraphModel dx="1038" dy="588" grid="1" gridSize="10" guides="1" tooltips="1" connect="1" arrows="1" fold="1" page="1" pageScale="1" pageWidth="827" pageHeight="1169" math="0" shadow="0">
      <root>
        <mxCell id="0" />
        <mxCell id="1" parent="0" />
        <mxCell id="vf80NwjBvejmA2ly74_q-1" value="" style="rounded=0;whiteSpace=wrap;html=1;fillColor=#ffe6cc;strokeColor=#d79b00;" vertex="1" parent="1">
          <mxGeometry x="440" y="90" width="50" height="100" as="geometry" />
        </mxCell>
        <mxCell id="vf80NwjBvejmA2ly74_q-2" value="" style="rounded=0;whiteSpace=wrap;html=1;fillColor=#ffe6cc;strokeColor=#d79b00;" vertex="1" parent="1">
          <mxGeometry x="440" y="210" width="50" height="100" as="geometry" />
        </mxCell>
        <mxCell id="vf80NwjBvejmA2ly74_q-3" value="" style="rounded=0;whiteSpace=wrap;html=1;fillColor=#ffe6cc;strokeColor=#d79b00;" vertex="1" parent="1">
          <mxGeometry x="440" y="330" width="50" height="100" as="geometry" />
        </mxCell>
        <mxCell id="vf80NwjBvejmA2ly74_q-4" value="" style="rounded=0;whiteSpace=wrap;html=1;fillColor=#dae8fc;strokeColor=#6c8ebf;" vertex="1" parent="1">
          <mxGeometry x="350" y="150" width="50" height="100" as="geometry" />
        </mxCell>
        <mxCell id="vf80NwjBvejmA2ly74_q-5" value="" style="rounded=0;whiteSpace=wrap;html=1;fillColor=#dae8fc;strokeColor=#6c8ebf;" vertex="1" parent="1">
          <mxGeometry x="350" y="270" width="50" height="100" as="geometry" />
        </mxCell>
        <mxCell id="vf80NwjBvejmA2ly74_q-6" value="" style="rounded=0;whiteSpace=wrap;html=1;fillColor=#dae8fc;strokeColor=#6c8ebf;" vertex="1" parent="1">
          <mxGeometry x="350" y="390" width="50" height="100" as="geometry" />
        </mxCell>
        <mxCell id="vf80NwjBvejmA2ly74_q-8" value="" style="endArrow=classic;html=1;" edge="1" parent="1">
          <mxGeometry width="50" height="50" relative="1" as="geometry">
            <mxPoint x="375" y="230" as="sourcePoint" />
            <mxPoint x="375" y="170" as="targetPoint" />
          </mxGeometry>
        </mxCell>
        <mxCell id="vf80NwjBvejmA2ly74_q-9" value="" style="endArrow=classic;html=1;" edge="1" parent="1">
          <mxGeometry width="50" height="50" relative="1" as="geometry">
            <mxPoint x="374.5" y="350" as="sourcePoint" />
            <mxPoint x="374.5" y="290" as="targetPoint" />
          </mxGeometry>
        </mxCell>
        <mxCell id="vf80NwjBvejmA2ly74_q-10" value="" style="endArrow=classic;html=1;" edge="1" parent="1">
          <mxGeometry width="50" height="50" relative="1" as="geometry">
            <mxPoint x="374.5" y="470" as="sourcePoint" />
            <mxPoint x="374.5" y="410" as="targetPoint" />
          </mxGeometry>
        </mxCell>
        <mxCell id="vf80NwjBvejmA2ly74_q-11" value="" style="endArrow=classic;html=1;" edge="1" parent="1">
          <mxGeometry width="50" height="50" relative="1" as="geometry">
            <mxPoint x="464.5" y="170" as="sourcePoint" />
            <mxPoint x="464.5" y="110" as="targetPoint" />
          </mxGeometry>
        </mxCell>
        <mxCell id="vf80NwjBvejmA2ly74_q-12" value="" style="endArrow=classic;html=1;" edge="1" parent="1">
          <mxGeometry width="50" height="50" relative="1" as="geometry">
            <mxPoint x="464.5" y="290" as="sourcePoint" />
            <mxPoint x="464.5" y="230" as="targetPoint" />
          </mxGeometry>
        </mxCell>
        <mxCell id="vf80NwjBvejmA2ly74_q-13" value="" style="endArrow=classic;html=1;" edge="1" parent="1">
          <mxGeometry width="50" height="50" relative="1" as="geometry">
            <mxPoint x="464.5" y="410" as="sourcePoint" />
            <mxPoint x="464.5" y="350" as="targetPoint" />
          </mxGeometry>
        </mxCell>
        <mxCell id="vf80NwjBvejmA2ly74_q-14" value="" style="rounded=0;whiteSpace=wrap;html=1;fillColor=#d5e8d4;strokeColor=#82b366;" vertex="1" parent="1">
          <mxGeometry x="260" y="210" width="50" height="100" as="geometry" />
        </mxCell>
        <mxCell id="vf80NwjBvejmA2ly74_q-15" value="" style="endArrow=classic;html=1;" edge="1" parent="1">
          <mxGeometry width="50" height="50" relative="1" as="geometry">
            <mxPoint x="285" y="290" as="sourcePoint" />
            <mxPoint x="285" y="230" as="targetPoint" />
          </mxGeometry>
        </mxCell>
        <mxCell id="vf80NwjBvejmA2ly74_q-16" value="Platoon 1" style="text;html=1;strokeColor=#d79b00;fillColor=#ffe6cc;align=center;verticalAlign=middle;whiteSpace=wrap;rounded=0;" vertex="1" parent="1">
          <mxGeometry x="560" y="240" width="80" height="20" as="geometry" />
        </mxCell>
        <mxCell id="vf80NwjBvejmA2ly74_q-17" value="Platoon 2" style="text;html=1;strokeColor=#6c8ebf;fillColor=#dae8fc;align=center;verticalAlign=middle;whiteSpace=wrap;rounded=0;" vertex="1" parent="1">
          <mxGeometry x="560" y="280" width="80" height="20" as="geometry" />
        </mxCell>
        <mxCell id="vf80NwjBvejmA2ly74_q-18" value="VeÃ­culo Livre" style="text;html=1;strokeColor=#82b366;fillColor=#d5e8d4;align=center;verticalAlign=middle;whiteSpace=wrap;rounded=0;" vertex="1" parent="1">
          <mxGeometry x="560" y="320" width="80" height="20" as="geometry" />
        </mxCell>
      </root>
    </mxGraphModel>
  </diagram>
</mxfile>
